# xmcd CD database file
#
# Track frame offsets:
#	150
#	21007
#	36822
#	53355
#	69915
#	92567
#	106677
#	119410
#	136910
#	143775
#	156262
#	170030
#	181490
#	192330
#	214792
#
# Disc length: 3178 seconds
#
# Revision: 0
# Processed by: cddbd v1.5.1PL2 Copyright (c) Steve Scherf et al.
# Submitted via: CDex 1.51
#
DISCID=c80c680f
DTITLE=The Carpenters - Sweet Memory Someday
DYEAR=1900
DGENRE=Pop
TTITLE0=A Song For You
TTITLE1=Boat To Sail
TTITLE2=(Want You) Back In My Life Again
TTITLE3=When You've Got What It Takes
TTITLE4=Because We Are In Love (The Wedding Song)
TTITLE5=When I Fall In Love
TTITLE6=Heather
TTITLE7=Road Ode
TTITLE8=Aurora
TTITLE9=Please Mr. Postman
TTITLE10=Reason To Belive
TTITLE11=For All We Know
TTITLE12=Let Me Be The One
TTITLE13=I Can Dream Can't I
TTITLE14=Look To Your Dreams
EXTD=
EXTT0=
EXTT1=
EXTT2=
EXTT3=
EXTT4=
EXTT5=
EXTT6=
EXTT7=
EXTT8=
EXTT9=
EXTT10=
EXTT11=
EXTT12=
EXTT13=
EXTT14=
PLAYORDER=
